<svg width="41" height="40" viewBox="0 0 41 40" fill="none" xmlns="http://www.w3.org/2000/svg">
<path d="M0.640625 15C0.640625 6.71573 7.35635 0 15.6406 0H25.6406C33.9249 0 40.6406 6.71573 40.6406 15V25C40.6406 33.2843 33.9249 40 25.6406 40H15.6406C7.35635 40 0.640625 33.2843 0.640625 25V15Z" fill="#CFD1EC"/>
<g clip-path="url(#clip0_1733_1008)">
<path d="M21.1856 31H20.0911C19.6556 31 19.238 30.7827 18.9301 30.3959C18.6222 30.0091 18.4492 29.4845 18.4492 28.9375V20.6875C18.4492 20.1405 18.6222 19.6159 18.9301 19.2291C19.238 18.8423 19.6556 18.625 20.0911 18.625H21.1856C21.6211 18.625 22.0387 18.8423 22.3466 19.2291C22.6545 19.6159 22.8275 20.1405 22.8275 20.6875V24.8125C22.8275 24.9948 22.7698 25.1697 22.6672 25.2986C22.5645 25.4276 22.4253 25.5 22.2802 25.5C22.135 25.5 21.9958 25.4276 21.8932 25.2986C21.7906 25.1697 21.7329 24.9948 21.7329 24.8125V20.6875C21.7329 20.5052 21.6752 20.3303 21.5726 20.2014C21.47 20.0724 21.3308 20 21.1856 20H20.0911C19.9459 20 19.8067 20.0724 19.7041 20.2014C19.6014 20.3303 19.5438 20.5052 19.5438 20.6875V28.9375C19.5438 29.1198 19.6014 29.2947 19.7041 29.4236C19.8067 29.5526 19.9459 29.625 20.0911 29.625H21.1856C21.3308 29.625 21.47 29.5526 21.5726 29.4236C21.6752 29.2947 21.7329 29.1198 21.7329 28.9375V27.5625C21.7329 27.3802 21.7906 27.2053 21.8932 27.0764C21.9958 26.9474 22.135 26.875 22.2802 26.875C22.4253 26.875 22.5645 26.9474 22.6672 27.0764C22.7698 27.2053 22.8275 27.3802 22.8275 27.5625V28.9375C22.8275 29.4845 22.6545 30.0091 22.3466 30.3959C22.0387 30.7827 21.6211 31 21.1856 31Z" fill="black"/>
<path d="M15.713 31H14.6184C14.183 31 13.7654 30.7827 13.4574 30.3959C13.1495 30.0091 12.9766 29.4845 12.9766 28.9375V24.8125C12.9766 24.2655 13.1495 23.7409 13.4574 23.3541C13.7654 22.9673 14.183 22.75 14.6184 22.75H15.713C16.1484 22.75 16.566 22.9673 16.8739 23.3541C17.1818 23.7409 17.3548 24.2655 17.3548 24.8125V28.9375C17.3548 29.4845 17.1818 30.0091 16.8739 30.3959C16.566 30.7827 16.1484 31 15.713 31ZM14.6184 24.125C14.4733 24.125 14.3341 24.1974 14.2314 24.3264C14.1288 24.4553 14.0711 24.6302 14.0711 24.8125V28.9375C14.0711 29.1198 14.1288 29.2947 14.2314 29.4236C14.3341 29.5526 14.4733 29.625 14.6184 29.625H15.713C15.8581 29.625 15.9973 29.5526 16.0999 29.4236C16.2026 29.2947 16.2602 29.1198 16.2602 28.9375V24.8125C16.2602 24.6302 16.2026 24.4553 16.0999 24.3264C15.9973 24.1974 15.8581 24.125 15.713 24.125H14.6184Z" fill="black"/>
<path d="M26.6583 31H25.5637C25.1283 31 24.7107 30.7827 24.4028 30.3959C24.0949 30.0091 23.9219 29.4845 23.9219 28.9375V17.9375C23.9219 17.3905 24.0949 16.8659 24.4028 16.4791C24.7107 16.0923 25.1283 15.875 25.5637 15.875H26.6583C27.0937 15.875 27.5113 16.0923 27.8192 16.4791C28.1271 16.8659 28.3001 17.3905 28.3001 17.9375V20.6875C28.3001 20.8698 28.2425 21.0447 28.1398 21.1736C28.0372 21.3026 27.898 21.375 27.7528 21.375C27.6077 21.375 27.4685 21.3026 27.3659 21.1736C27.2632 21.0447 27.2056 20.8698 27.2056 20.6875V17.9375C27.2056 17.7552 27.1479 17.5803 27.0453 17.4514C26.9426 17.3224 26.8034 17.25 26.6583 17.25H25.5637C25.4186 17.25 25.2794 17.3224 25.1767 17.4514C25.0741 17.5803 25.0164 17.7552 25.0164 17.9375V28.9375C25.0164 29.1198 25.0741 29.2947 25.1767 29.4236C25.2794 29.5526 25.4186 29.625 25.5637 29.625H26.6583C26.8034 29.625 26.9426 29.5526 27.0453 29.4236C27.1479 29.2947 27.2056 29.1198 27.2056 28.9375V23.4375C27.2056 23.2552 27.2632 23.0803 27.3659 22.9514C27.4685 22.8224 27.6077 22.75 27.7528 22.75C27.898 22.75 28.0372 22.8224 28.1398 22.9514C28.2425 23.0803 28.3001 23.2552 28.3001 23.4375V28.9375C28.3001 29.4845 28.1271 30.0091 27.8192 30.3959C27.5113 30.7827 27.0937 31 26.6583 31Z" fill="black"/>
<path d="M15.1653 20C14.8406 20 14.5231 19.879 14.2531 19.6524C13.9831 19.4258 13.7727 19.1037 13.6484 18.7268C13.5241 18.3499 13.4916 17.9352 13.555 17.5351C13.6183 17.135 13.7747 16.7675 14.0043 16.4791C14.2339 16.1906 14.5265 15.9942 14.845 15.9146C15.1635 15.835 15.4936 15.8759 15.7936 16.032C16.0936 16.1881 16.35 16.4525 16.5304 16.7916C16.7108 17.1308 16.8071 17.5296 16.8071 17.9375C16.8071 18.4845 16.6341 19.0091 16.3262 19.3959C16.0183 19.7827 15.6007 20 15.1653 20ZM15.1653 17.25C15.057 17.25 14.9512 17.2903 14.8612 17.3659C14.7712 17.4414 14.7011 17.5488 14.6597 17.6744C14.6182 17.8 14.6074 17.9383 14.6285 18.0716C14.6496 18.205 14.7018 18.3275 14.7783 18.4236C14.8548 18.5198 14.9523 18.5853 15.0585 18.6118C15.1647 18.6383 15.2747 18.6247 15.3747 18.5727C15.4747 18.5206 15.5602 18.4325 15.6203 18.3195C15.6805 18.2064 15.7126 18.0735 15.7126 17.9375C15.7126 17.7552 15.6549 17.5803 15.5523 17.4514C15.4496 17.3224 15.3104 17.25 15.1653 17.25Z" fill="black"/>
<path d="M20.6379 15.875C20.3132 15.875 19.9958 15.754 19.7258 15.5274C19.4558 15.3008 19.2453 14.9787 19.1211 14.6018C18.9968 14.2249 18.9643 13.8102 19.0276 13.4101C19.091 13.01 19.2474 12.6425 19.477 12.3541C19.7066 12.0656 19.9991 11.8692 20.3176 11.7896C20.6361 11.71 20.9662 11.7509 21.2662 11.907C21.5662 12.0631 21.8227 12.3275 22.0031 12.6666C22.1835 13.0058 22.2798 13.4046 22.2798 13.8125C22.2798 14.3595 22.1068 14.8841 21.7989 15.2709C21.491 15.6577 21.0734 15.875 20.6379 15.875ZM20.6379 13.125C20.5297 13.125 20.4239 13.1653 20.3339 13.2409C20.2439 13.3164 20.1737 13.4238 20.1323 13.5494C20.0909 13.675 20.0801 13.8133 20.1012 13.9466C20.1223 14.08 20.1744 14.2025 20.251 14.2986C20.3275 14.3948 20.425 14.4603 20.5312 14.4868C20.6373 14.5133 20.7474 14.4997 20.8474 14.4477C20.9474 14.3956 21.0328 14.3075 21.093 14.1945C21.1531 14.0814 21.1852 13.9485 21.1852 13.8125C21.1852 13.6302 21.1276 13.4553 21.0249 13.3264C20.9223 13.1974 20.7831 13.125 20.6379 13.125Z" fill="black"/>
<path d="M26.1106 13.125C25.7859 13.125 25.4684 13.004 25.1984 12.7774C24.9284 12.5508 24.718 12.2287 24.5937 11.8518C24.4695 11.4749 24.4369 11.0602 24.5003 10.6601C24.5636 10.26 24.72 9.89254 24.9496 9.60409C25.1793 9.31565 25.4718 9.11921 25.7903 9.03963C26.1088 8.96005 26.4389 9.00089 26.7389 9.157C27.0389 9.31311 27.2953 9.57746 27.4757 9.91664C27.6561 10.2558 27.7524 10.6546 27.7524 11.0625C27.7524 11.6095 27.5795 12.1341 27.2715 12.5209C26.9636 12.9077 26.546 13.125 26.1106 13.125ZM26.1106 10.375C26.0023 10.375 25.8965 10.4153 25.8065 10.4909C25.7165 10.5664 25.6464 10.6738 25.605 10.7994C25.5635 10.925 25.5527 11.0633 25.5738 11.1966C25.5949 11.33 25.6471 11.4525 25.7236 11.5486C25.8001 11.6448 25.8977 11.7103 26.0038 11.7368C26.11 11.7633 26.22 11.7497 26.32 11.6977C26.42 11.6456 26.5055 11.5575 26.5656 11.4445C26.6258 11.3314 26.6579 11.1985 26.6579 11.0625C26.6579 10.8802 26.6002 10.7053 26.4976 10.5764C26.3949 10.4474 26.2557 10.375 26.1106 10.375Z" fill="black"/>
<path d="M16.1005 17.9168C15.9809 17.9164 15.8647 17.8668 15.7697 17.7755C15.6746 17.6843 15.606 17.5565 15.5743 17.4116C15.5426 17.2667 15.5495 17.1128 15.594 16.9733C15.6386 16.8339 15.7182 16.7166 15.8209 16.6394L19.422 13.9306C19.5459 13.8506 19.6895 13.8329 19.8234 13.8812C19.9573 13.9295 20.0716 14.0402 20.1428 14.1907C20.214 14.3412 20.2368 14.5201 20.2066 14.691C20.1764 14.8619 20.0954 15.0119 19.9802 15.1104L16.3791 17.8191C16.2949 17.8825 16.1987 17.9162 16.1005 17.9168Z" fill="black"/>
<path d="M21.6493 13.991C21.522 13.9912 21.3987 13.9356 21.3005 13.8338C21.2023 13.732 21.1355 13.5904 21.1114 13.4334C21.0874 13.2764 21.1077 13.1137 21.1688 12.9734C21.2299 12.8332 21.328 12.724 21.4463 12.6649L24.8942 10.933C24.9612 10.8979 25.033 10.8798 25.1056 10.8799C25.1782 10.88 25.2501 10.8982 25.317 10.9335C25.3839 10.9688 25.4446 11.0204 25.4955 11.0855C25.5464 11.1505 25.5865 11.2276 25.6134 11.3123C25.6403 11.397 25.6536 11.4875 25.6524 11.5787C25.6512 11.6699 25.6356 11.7599 25.6064 11.8434C25.5773 11.9269 25.5352 12.0023 25.4826 12.0652C25.4301 12.1281 25.3681 12.1772 25.3003 12.2097L21.8524 13.9415C21.7879 13.9743 21.7189 13.9911 21.6493 13.991Z" fill="black"/>
</g>
<defs>
<clipPath id="clip0_1733_1008">
<path d="M11.8828 17.7565C11.8828 12.9204 15.8032 9 20.6393 9C25.4754 9 29.3958 12.9204 29.3958 17.7565V22.2435C29.3958 27.0796 25.4754 31 20.6393 31C15.8032 31 11.8828 27.0796 11.8828 22.2435V17.7565Z" fill="white"/>
</clipPath>
</defs>
</svg>
