<svg width="41" height="40" viewBox="0 0 41 40" fill="none" xmlns="http://www.w3.org/2000/svg">
<path d="M0.1875 15C0.1875 6.71573 6.90323 0 15.1875 0H25.1875C33.4718 0 40.1875 6.71573 40.1875 15V25C40.1875 33.2843 33.4718 40 25.1875 40H15.1875C6.90323 40 0.1875 33.2843 0.1875 25V15Z" fill="#E7C3D7"/>
<path d="M21.6841 31H14.6145C13.7497 31 12.9203 30.6528 12.3084 30.0347C11.6966 29.4165 11.3525 28.5781 11.3516 27.7034V12.3C11.3516 11.4248 11.6953 10.5854 12.3072 9.96655C12.9192 9.34768 13.7491 9 14.6145 9H21.6841C22.1126 9 22.5369 9.08536 22.9328 9.2512C23.3286 9.41704 23.6883 9.66011 23.9913 9.96655C24.2943 10.273 24.5347 10.6368 24.6986 11.0371C24.8626 11.4375 24.947 11.8666 24.947 12.3V12.4375C24.947 12.6198 24.8754 12.7947 24.7479 12.9236C24.6204 13.0526 24.4475 13.125 24.2672 13.125C24.087 13.125 23.914 13.0526 23.7866 12.9236C23.6591 12.7947 23.5875 12.6198 23.5875 12.4375V12.3C23.5875 11.7895 23.3869 11.2998 23.03 10.9388C22.673 10.5778 22.1889 10.375 21.6841 10.375H14.6145C14.1097 10.375 13.6255 10.5778 13.2686 10.9388C12.9116 11.2998 12.7111 11.7895 12.7111 12.3V27.7069C12.7129 28.2162 12.9142 28.7041 13.271 29.0636C13.6277 29.4231 14.1108 29.625 14.6145 29.625H21.6841C21.9341 29.625 22.1816 29.5752 22.4125 29.4785C22.6434 29.3817 22.8532 29.2399 23.03 29.0612C23.2067 28.8824 23.3469 28.6702 23.4426 28.4367C23.5382 28.2031 23.5875 27.9528 23.5875 27.7V27.5625C23.5875 27.3802 23.6591 27.2053 23.7866 27.0764C23.914 26.9474 24.087 26.875 24.2672 26.875C24.4475 26.875 24.6204 26.9474 24.7479 27.0764C24.8754 27.2053 24.947 27.3802 24.947 27.5625V27.7C24.947 28.1334 24.8626 28.5625 24.6986 28.9629C24.5347 29.3632 24.2943 29.727 23.9913 30.0335C23.6883 30.3399 23.3286 30.583 22.9328 30.7488C22.5369 30.9146 22.1126 31 21.6841 31Z" fill="black"/>
<path d="M18.1486 28.25C17.8797 28.25 17.6169 28.1694 17.3933 28.0183C17.1697 27.8672 16.9955 27.6524 16.8926 27.4012C16.7897 27.1499 16.7627 26.8735 16.8152 26.6068C16.8676 26.34 16.9971 26.095 17.1873 25.9027C17.3774 25.7104 17.6196 25.5795 17.8834 25.5264C18.1471 25.4734 18.4205 25.5006 18.6689 25.6047C18.9173 25.7087 19.1296 25.885 19.279 26.1111C19.4284 26.3372 19.5082 26.6031 19.5082 26.875C19.5082 27.2397 19.3649 27.5894 19.11 27.8473C18.855 28.1051 18.5092 28.25 18.1486 28.25Z" fill="black"/>
<path d="M20.1881 13.125H16.1095C15.9292 13.125 15.7563 13.0526 15.6288 12.9236C15.5013 12.7947 15.4297 12.6198 15.4297 12.4375C15.4297 12.2552 15.5013 12.0803 15.6288 11.9514C15.7563 11.8224 15.9292 11.75 16.1095 11.75H20.1881C20.3684 11.75 20.5413 11.8224 20.6688 11.9514C20.7962 12.0803 20.8679 12.2552 20.8679 12.4375C20.8679 12.6198 20.7962 12.7947 20.6688 12.9236C20.5413 13.0526 20.3684 13.125 20.1881 13.125Z" fill="black"/>
<path d="M29.0247 21.375H19.5079C19.3276 21.375 19.1547 21.3026 19.0272 21.1736C18.8997 21.0447 18.8281 20.8698 18.8281 20.6875V17.9375C18.8281 17.7552 18.8997 17.5803 19.0272 17.4514C19.1547 17.3224 19.3276 17.25 19.5079 17.25H29.0247C29.205 17.25 29.3779 17.3224 29.5054 17.4514C29.6329 17.5803 29.7045 17.7552 29.7045 17.9375V20.6875C29.7045 20.8698 29.6329 21.0447 29.5054 21.1736C29.3779 21.3026 29.205 21.375 29.0247 21.375ZM20.1877 20H28.3449V18.625H20.1877V20Z" fill="black"/>
<path d="M26.9853 25.5H21.5471C21.0063 25.5 20.4876 25.2827 20.1051 24.8959C19.7227 24.5091 19.5078 23.9845 19.5078 23.4375V20.6875C19.5078 20.5052 19.5794 20.3303 19.7069 20.2014C19.8344 20.0724 20.0073 20 20.1876 20H28.3449C28.5251 20 28.698 20.0724 28.8255 20.2014C28.953 20.3303 29.0246 20.5052 29.0246 20.6875V23.4375C29.0246 23.9845 28.8098 24.5091 28.4273 24.8959C28.0449 25.2827 27.5262 25.5 26.9853 25.5ZM20.8674 21.375V23.4375C20.8674 23.6198 20.939 23.7947 21.0665 23.9236C21.1939 24.0526 21.3668 24.125 21.5471 24.125H26.9853C27.1656 24.125 27.3385 24.0526 27.466 23.9236C27.5935 23.7947 27.6651 23.6198 27.6651 23.4375V21.375H20.8674Z" fill="black"/>
<path d="M26.9851 18.625H21.547C21.3667 18.625 21.1938 18.5526 21.0663 18.4236C20.9388 18.2947 20.8672 18.1198 20.8672 17.9375V16.5625C20.8672 16.0155 21.082 15.4909 21.4645 15.1041C21.8469 14.7173 22.3656 14.5 22.9065 14.5H25.6256C26.1665 14.5 26.6852 14.7173 27.0676 15.1041C27.4501 15.4909 27.6649 16.0155 27.6649 16.5625V17.9375C27.6649 18.1198 27.5933 18.2947 27.4658 18.4236C27.3383 18.5526 27.1654 18.625 26.9851 18.625ZM22.2267 17.25H26.3054V16.5625C26.3054 16.3802 26.2337 16.2053 26.1063 16.0764C25.9788 15.9474 25.8059 15.875 25.6256 15.875H22.9065C22.7262 15.875 22.5533 15.9474 22.4258 16.0764C22.2984 16.2053 22.2267 16.3802 22.2267 16.5625V17.25Z" fill="black"/>
</svg>
