<svg width="41" height="40" viewBox="0 0 41 40" fill="none" xmlns="http://www.w3.org/2000/svg">
<path d="M0.914062 15C0.914062 6.71573 7.62979 0 15.9141 0H25.9141C34.1983 0 40.9141 6.71573 40.9141 15V25C40.9141 33.2843 34.1983 40 25.9141 40H15.9141C7.62979 40 0.914062 33.2843 0.914062 25V15Z" fill="#E4E4BC"/>
<g clip-path="url(#clip0_0_1)">
<path d="M25.7758 13.125H24.561C24.561 12.7603 24.433 12.4106 24.2051 12.1527C23.9773 11.8949 23.6683 11.75 23.3461 11.75H22.7386V11.0625C22.7386 10.5155 22.5466 9.99089 22.2049 9.60409C21.8631 9.2173 21.3996 9 20.9163 9C20.433 9 19.9694 9.2173 19.6277 9.60409C19.2859 9.99089 19.0939 10.5155 19.0939 11.0625V11.75H18.4865C18.1643 11.75 17.8553 11.8949 17.6274 12.1527C17.3996 12.4106 17.2716 12.7603 17.2716 13.125H16.0567C15.5734 13.125 15.1099 13.3423 14.7681 13.7291C14.4264 14.1159 14.2344 14.6405 14.2344 15.1875V28.9375C14.2344 29.4845 14.4264 30.0091 14.7681 30.3959C15.1099 30.7827 15.5734 31 16.0567 31H21.5237C21.6848 31 21.8393 30.9276 21.9533 30.7986C22.0672 30.6697 22.1312 30.4948 22.1312 30.3125C22.1312 30.1302 22.0672 29.9553 21.9533 29.8264C21.8393 29.6974 21.6848 29.625 21.5237 29.625H16.0567C15.8956 29.625 15.7411 29.5526 15.6272 29.4236C15.5133 29.2947 15.4493 29.1198 15.4493 28.9375V15.1875C15.4493 15.0052 15.5133 14.8303 15.6272 14.7014C15.7411 14.5724 15.8956 14.5 16.0567 14.5H17.2716C17.2716 14.8647 17.3996 15.2144 17.6274 15.4723C17.8553 15.7301 18.1643 15.875 18.4865 15.875H23.3461C23.6683 15.875 23.9773 15.7301 24.2051 15.4723C24.433 15.2144 24.561 14.8647 24.561 14.5H25.7758C25.9369 14.5 26.0915 14.5724 26.2054 14.7014C26.3193 14.8303 26.3833 15.0052 26.3833 15.1875V20.6875C26.3833 20.8698 26.4473 21.0447 26.5612 21.1736C26.6751 21.3026 26.8296 21.375 26.9907 21.375C27.1518 21.375 27.3063 21.3026 27.4203 21.1736C27.5342 21.0447 27.5982 20.8698 27.5982 20.6875V15.1875C27.5982 14.6405 27.4062 14.1159 27.0644 13.7291C26.7227 13.3423 26.2592 13.125 25.7758 13.125ZM20.3088 11.0625C20.3088 10.8802 20.3728 10.7053 20.4867 10.5764C20.6007 10.4474 20.7552 10.375 20.9163 10.375C21.0774 10.375 21.2319 10.4474 21.3458 10.5764C21.4597 10.7053 21.5237 10.8802 21.5237 11.0625V11.75H20.3088V11.0625ZM18.4865 14.5V13.125H23.3461V13.8125V14.5H18.4865Z" fill="black"/>
<path d="M21.5219 25.5C21.3814 25.4991 21.2456 25.4431 21.1374 25.3415C21.0293 25.24 20.9557 25.0991 20.929 24.943C20.9023 24.7869 20.9243 24.6251 20.9912 24.4853C21.058 24.3455 21.1657 24.2362 21.2957 24.176C21.4258 24.1159 21.5702 24.1087 21.7045 24.1556C21.8387 24.2024 21.9545 24.3005 22.032 24.4331C22.1095 24.5657 22.144 24.7246 22.1297 24.8828C22.1153 25.041 22.0529 25.1886 21.9532 25.3006C21.8368 25.4262 21.6827 25.4975 21.5219 25.5Z" fill="black"/>
<path d="M17.8775 26.1874C17.7976 26.1879 17.7183 26.1706 17.6443 26.1364C17.5703 26.1021 17.503 26.0517 17.4462 25.988L16.8388 25.3005C16.7244 25.171 16.6602 24.9955 16.6602 24.8124C16.6602 24.6293 16.7244 24.4537 16.8388 24.3243C16.9532 24.1948 17.1083 24.1221 17.2701 24.1221C17.4319 24.1221 17.587 24.1948 17.7014 24.3243L17.8775 24.5305L18.6611 23.6368C18.7178 23.5727 18.785 23.5218 18.859 23.4871C18.933 23.4524 19.0123 23.4346 19.0924 23.4346C19.1725 23.4346 19.2518 23.4524 19.3258 23.4871C19.3998 23.5218 19.4671 23.5727 19.5237 23.6368C19.5803 23.7009 19.6253 23.777 19.6559 23.8607C19.6866 23.9445 19.7024 24.0342 19.7024 24.1249C19.7024 24.2155 19.6866 24.3053 19.6559 24.3891C19.6253 24.4728 19.5803 24.5489 19.5237 24.613L18.3088 25.988C18.2521 26.0517 18.1847 26.1021 18.1107 26.1364C18.0367 26.1706 17.9575 26.1879 17.8775 26.1874Z" fill="black"/>
<path d="M24.5626 20H21.5254C21.3643 20 21.2098 19.9276 21.0959 19.7986C20.982 19.6697 20.918 19.4948 20.918 19.3125C20.918 19.1302 20.982 18.9553 21.0959 18.8264C21.2098 18.6974 21.3643 18.625 21.5254 18.625H24.5626C24.7237 18.625 24.8783 18.6974 24.9922 18.8264C25.1061 18.9553 25.1701 19.1302 25.1701 19.3125C25.1701 19.4948 25.1061 19.6697 24.9922 19.7986C24.8783 19.9276 24.7237 20 24.5626 20Z" fill="black"/>
<path d="M17.8775 20.6874C17.7976 20.6879 17.7183 20.6706 17.6443 20.6364C17.5703 20.6021 17.503 20.5517 17.4462 20.488L16.8388 19.8005C16.7244 19.671 16.6602 19.4955 16.6602 19.3124C16.6602 19.1293 16.7244 18.9537 16.8388 18.8243C16.9532 18.6948 17.1083 18.6221 17.2701 18.6221C17.4319 18.6221 17.587 18.6948 17.7014 18.8243L17.8775 19.0305L18.6611 18.1368C18.7755 18.0073 18.9307 17.9346 19.0924 17.9346C19.2542 17.9346 19.4093 18.0073 19.5237 18.1368C19.6381 18.2662 19.7024 18.4418 19.7024 18.6249C19.7024 18.808 19.6381 18.9835 19.5237 19.113L18.3088 20.488C18.2521 20.5517 18.1847 20.6021 18.1107 20.6364C18.0367 20.6706 17.9575 20.6879 17.8775 20.6874Z" fill="black"/>
<path d="M25.7773 23.4375H28.2071V25.5C28.2071 25.6823 28.1431 25.8572 28.0292 25.9861C27.9153 26.1151 27.7608 26.1875 27.5997 26.1875H26.3848C26.2237 26.1875 26.0692 26.1151 25.9553 25.9861C25.8413 25.8572 25.7773 25.6823 25.7773 25.5V23.4375Z" fill="black"/>
<path d="M28.8147 31H25.17C24.6867 31 24.2232 30.7827 23.8814 30.3959C23.5397 30.0091 23.3477 29.4845 23.3477 28.9375V24.8125C23.3477 24.2655 23.5397 23.7409 23.8814 23.3541C24.2232 22.9673 24.6867 22.75 25.17 22.75H28.8147C29.298 22.75 29.7615 22.9673 30.1033 23.3541C30.445 23.7409 30.637 24.2655 30.637 24.8125V28.9375C30.637 29.4845 30.445 30.0091 30.1033 30.3959C29.7615 30.7827 29.298 31 28.8147 31ZM25.17 24.125C25.0089 24.125 24.8544 24.1974 24.7405 24.3264C24.6265 24.4553 24.5625 24.6302 24.5625 24.8125V28.9375C24.5625 29.1198 24.6265 29.2947 24.7405 29.4236C24.8544 29.5526 25.0089 29.625 25.17 29.625H28.8147C28.9758 29.625 29.1303 29.5526 29.2442 29.4236C29.3581 29.2947 29.4221 29.1198 29.4221 28.9375V24.8125C29.4221 24.6302 29.3581 24.4553 29.2442 24.3264C29.1303 24.1974 28.9758 24.125 28.8147 24.125H25.17Z" fill="black"/>
</g>
<defs>
<clipPath id="clip0_0_1">
<path d="M11.1953 18.7191C11.1953 13.3514 15.5467 9 20.9144 9C26.2822 9 30.6336 13.3514 30.6336 18.7191V21.2809C30.6336 26.6486 26.2822 31 20.9144 31C15.5467 31 11.1953 26.6486 11.1953 21.2809V18.7191Z" fill="white"/>
</clipPath>
</defs>
</svg>
