<svg width="10" height="12" viewBox="0 0 10 12" fill="none" xmlns="http://www.w3.org/2000/svg">
<path fill-rule="evenodd" clip-rule="evenodd" d="M0.646447 7.14645C0.841709 6.95118 1.15829 6.95118 1.35355 7.14645L5 10.7929L8.64645 7.14645C8.84171 6.95118 9.15829 6.95118 9.35355 7.14645C9.54882 7.34171 9.54882 7.65829 9.35355 7.85355L5.35355 11.8536C5.15829 12.0488 4.84171 12.0488 4.64645 11.8536L0.646447 7.85355C0.451184 7.65829 0.451184 7.34171 0.646447 7.14645Z" fill="white"/>
<path fill-rule="evenodd" clip-rule="evenodd" d="M0.646447 4.85355C0.841709 5.04882 1.15829 5.04882 1.35355 4.85355L5 1.20711L8.64645 4.85355C8.84171 5.04882 9.15829 5.04882 9.35355 4.85355C9.54882 4.65829 9.54882 4.34171 9.35355 4.14645L5.35355 0.146447C5.15829 -0.0488157 4.84171 -0.0488157 4.64645 0.146447L0.646447 4.14645C0.451184 4.34171 0.451184 4.65829 0.646447 4.85355Z" fill="white"/>
</svg>
